<svg xmlns="http://www.w3.org/2000/svg" viewBox="0 0 114 102" fill="none">
  <defs>
    <linearGradient id="brainGradient" x1="6" y1="51" x2="108" y2="51" gradientUnits="userSpaceOnUse">
      <stop offset="0" stop-color="#29C7FF"/>
      <stop offset="0.46" stop-color="#2E5EFF"/>
      <stop offset="1" stop-color="#B13BFF"/>
    </linearGradient>

    <filter id="brainGlow" x="-60%" y="-60%" width="220%" height="220%">
      <feGaussianBlur stdDeviation="3.2" result="blur"/>
      <feMerge>
        <feMergeNode in="blur"/>
        <feMergeNode in="SourceGraphic"/>
      </feMerge>
    </filter>
  </defs>

  <g fill="url(#brainGradient)" shape-rendering="geometricPrecision">
    <g filter="url(#brainGlow)" opacity="0.92">
      <path d="M 54.0 0.1 L 50.1 1.7 L 50.5 5.0 L 54.1 6.7 L 55.0 10.8 L 55.0 15.4 L 55.0 20.0 L 55.0 24.6 L 53.4 28.6 L 51.9 32.5 L 53.1 36.7 L 53.9 40.9 L 55.1 45.0 L 56.1 49.2 L 54.7 53.3 L 52.2 56.8 L 51.0 60.9 L 51.4 65.3 L 52.9 69.3 L 54.3 73.3 L 55.0 77.6 L 54.8 82.1 L 54.0 86.3 L 54.0 90.9 L 53.1 95.1 L 54.1 99.3 L 58.1 100.9 L 62.1 99.9 L 63.1 96.9 L 58.9 96.0 L 57.0 92.1 L 57.0 87.5 L 57.1 83.0 L 58.0 78.8 L 58.0 74.2 L 57.1 70.0 L 55.2 66.2 L 54.0 62.0 L 55.8 58.2 L 58.0 54.6 L 59.0 50.4 L 59.0 45.8 L 57.1 42.0 L 56.0 37.9 L 55.0 33.7 L 56.4 29.7 L 57.9 25.8 L 59.0 21.6 L 58.0 17.5 L 58.0 12.9 L 57.9 8.3 L 59.8 4.9 L 64.4 5.0 L 68.1 7.3 L 67.0 11.4 L 70.5 12.6 L 74.3 10.9 L 78.1 12.9 L 80.9 15.9 L 82.9 19.1 L 87.2 20.1 L 91.4 21.0 L 94.8 23.8 L 96.7 27.6 L 95.0 31.2 L 93.6 34.7 L 97.7 36.0 L 101.7 37.6 L 101.8 41.2 L 97.5 41.9 L 96.4 45.5 L 100.8 46.0 L 104.6 47.6 L 107.7 51.0 L 109.7 54.8 L 109.0 58.8 L 107.4 62.7 L 104.8 66.2 L 101.6 69.5 L 97.4 70.4 L 96.9 74.9 L 95.8 79.1 L 93.4 82.7 L 89.8 85.0 L 85.6 86.1 L 82.0 87.6 L 79.1 91.0 L 74.9 92.0 L 70.5 91.5 L 66.9 92.4 L 70.1 95.2 L 74.4 96.0 L 78.5 95.0 L 82.5 93.6 L 85.7 90.2 L 89.8 89.0 L 93.7 87.4 L 97.0 84.1 L 99.0 80.3 L 99.9 76.1 L 102.6 73.0 L 106.2 70.7 L 108.8 67.2 L 111.0 63.5 L 112.4 59.6 L 113.0 55.2 L 112.7 50.7 L 110.9 46.9 L 108.4 43.3 L 105.0 40.8 L 106.1 36.6 L 103.8 33.1 L 100.2 31.0 L 99.1 26.9 L 97.9 22.8 L 94.6 19.5 L 91.0 17.2 L 86.9 16.1 L 83.9 13.1 L 80.9 9.8 L 77.0 8.0 L 72.9 7.0 L 69.7 4.8 L 67.0 1.9 L 63.1 0.2 L 58.6 0.0 Z"/>
      <path d="M 34.1 7.2 L 30.3 9.6 L 27.0 13.0 L 23.5 16.0 L 19.2 17.1 L 15.4 19.5 L 12.8 23.2 L 12.0 27.6 L 11.8 32.2 L 8.1 34.8 L 4.4 37.5 L 2.1 41.3 L 1.0 45.6 L -0.0 49.9 L -0.1 54.7 L 1.0 59.0 L 2.8 63.0 L 5.1 66.8 L 7.5 70.6 L 11.3 73.1 L 11.9 77.6 L 13.6 81.6 L 16.3 85.3 L 19.8 88.1 L 24.1 89.3 L 27.7 91.9 L 31.0 94.2 L 35.0 95.9 L 39.8 96.1 L 43.8 94.4 L 46.0 91.0 L 42.0 90.8 L 37.8 92.1 L 33.4 91.0 L 30.7 87.7 L 27.7 84.9 L 23.2 84.3 L 19.3 82.3 L 16.0 78.9 L 15.8 74.9 L 19.0 71.8 L 18.0 69.2 L 13.4 69.0 L 10.0 66.4 L 6.9 63.0 L 4.8 59.1 L 4.0 54.7 L 4.0 50.0 L 5.0 45.7 L 7.2 41.8 L 10.6 38.6 L 14.5 36.5 L 15.8 33.0 L 15.0 28.6 L 17.0 24.7 L 19.9 21.2 L 24.1 20.0 L 28.5 19.1 L 31.2 15.8 L 34.6 12.5 L 38.8 11.0 L 42.7 13.1 L 46.0 10.4 L 43.4 7.4 L 38.8 7.1 Z"/>
      <path d="M 40.2 27.2 L 39.4 28.9 L 39.5 31.5 L 39.8 33.8 L 39.1 35.3 L 37.3 36.5 L 35.0 37.9 L 33.2 39.6 L 32.4 41.9 L 33.0 43.6 L 34.8 43.8 L 36.7 42.4 L 38.6 40.3 L 40.2 38.4 L 41.6 36.7 L 43.0 34.9 L 44.6 32.8 L 45.4 30.6 L 44.3 28.5 L 42.2 27.1 Z"/>
      <path d="M 68.4 32.1 L 67.0 35.2 L 67.3 38.6 L 68.7 41.6 L 70.1 44.7 L 71.1 48.0 L 70.9 51.2 L 69.5 54.4 L 67.1 57.2 L 65.9 59.9 L 68.5 60.6 L 71.2 58.7 L 73.2 55.9 L 74.5 52.7 L 74.9 49.4 L 74.5 46.1 L 73.4 43.0 L 72.1 39.9 L 71.5 36.5 L 70.6 33.3 Z"/>
      <path d="M 19.1 41.0 L 17.9 43.9 L 18.2 47.2 L 19.7 50.0 L 21.8 52.6 L 24.0 55.1 L 25.7 57.6 L 27.3 60.2 L 29.4 63.1 L 31.8 65.5 L 34.0 65.5 L 34.8 62.6 L 32.9 60.2 L 30.3 58.1 L 28.6 55.6 L 27.4 52.7 L 26.5 49.7 L 25.5 46.7 L 24.2 43.8 L 21.9 41.5 Z"/>
      <path d="M 84.5 52.4 L 83.8 52.6 L 83.3 53.1 L 83.0 53.9 L 83.0 54.9 L 83.1 56.0 L 83.4 57.1 L 83.9 58.1 L 84.5 58.9 L 85.3 59.5 L 86.2 59.8 L 87.1 59.6 L 88.0 59.2 L 88.7 58.4 L 89.1 57.5 L 89.0 56.4 L 88.4 55.3 L 87.5 54.2 L 86.5 53.3 L 85.5 52.7 Z"/>
      <path d="M 77.3 66.2 L 76.4 68.0 L 75.7 70.6 L 74.5 72.5 L 72.4 73.1 L 70.0 73.5 L 67.8 74.7 L 66.7 76.6 L 67.3 78.7 L 69.1 80.3 L 71.2 80.9 L 73.1 80.3 L 74.9 78.8 L 76.6 77.0 L 78.3 75.1 L 80.1 73.6 L 81.7 72.5 L 82.1 70.6 L 81.0 68.2 L 79.1 66.4 Z"/>
      <path d="M 38.4 72.7 L 37.7 72.9 L 37.3 73.5 L 37.1 74.2 L 37.2 75.1 L 37.4 76.1 L 37.9 77.0 L 38.5 77.9 L 39.3 78.6 L 40.1 79.0 L 41.1 79.1 L 42.0 78.8 L 42.9 78.3 L 43.5 77.5 L 43.7 76.6 L 43.5 75.7 L 42.8 74.7 L 41.8 73.9 L 40.6 73.2 L 39.4 72.8 Z"/>
    </g>

    <path d="M 54.0 0.1 L 50.1 1.7 L 50.5 5.0 L 54.1 6.7 L 55.0 10.8 L 55.0 15.4 L 55.0 20.0 L 55.0 24.6 L 53.4 28.6 L 51.9 32.5 L 53.1 36.7 L 53.9 40.9 L 55.1 45.0 L 56.1 49.2 L 54.7 53.3 L 52.2 56.8 L 51.0 60.9 L 51.4 65.3 L 52.9 69.3 L 54.3 73.3 L 55.0 77.6 L 54.8 82.1 L 54.0 86.3 L 54.0 90.9 L 53.1 95.1 L 54.1 99.3 L 58.1 100.9 L 62.1 99.9 L 63.1 96.9 L 58.9 96.0 L 57.0 92.1 L 57.0 87.5 L 57.1 83.0 L 58.0 78.8 L 58.0 74.2 L 57.1 70.0 L 55.2 66.2 L 54.0 62.0 L 55.8 58.2 L 58.0 54.6 L 59.0 50.4 L 59.0 45.8 L 57.1 42.0 L 56.0 37.9 L 55.0 33.7 L 56.4 29.7 L 57.9 25.8 L 59.0 21.6 L 58.0 17.5 L 58.0 12.9 L 57.9 8.3 L 59.8 4.9 L 64.4 5.0 L 68.1 7.3 L 67.0 11.4 L 70.5 12.6 L 74.3 10.9 L 78.1 12.9 L 80.9 15.9 L 82.9 19.1 L 87.2 20.1 L 91.4 21.0 L 94.8 23.8 L 96.7 27.6 L 95.0 31.2 L 93.6 34.7 L 97.7 36.0 L 101.7 37.6 L 101.8 41.2 L 97.5 41.9 L 96.4 45.5 L 100.8 46.0 L 104.6 47.6 L 107.7 51.0 L 109.7 54.8 L 109.0 58.8 L 107.4 62.7 L 104.8 66.2 L 101.6 69.5 L 97.4 70.4 L 96.9 74.9 L 95.8 79.1 L 93.4 82.7 L 89.8 85.0 L 85.6 86.1 L 82.0 87.6 L 79.1 91.0 L 74.9 92.0 L 70.5 91.5 L 66.9 92.4 L 70.1 95.2 L 74.4 96.0 L 78.5 95.0 L 82.5 93.6 L 85.7 90.2 L 89.8 89.0 L 93.7 87.4 L 97.0 84.1 L 99.0 80.3 L 99.9 76.1 L 102.6 73.0 L 106.2 70.7 L 108.8 67.2 L 111.0 63.5 L 112.4 59.6 L 113.0 55.2 L 112.7 50.7 L 110.9 46.9 L 108.4 43.3 L 105.0 40.8 L 106.1 36.6 L 103.8 33.1 L 100.2 31.0 L 99.1 26.9 L 97.9 22.8 L 94.6 19.5 L 91.0 17.2 L 86.9 16.1 L 83.9 13.1 L 80.9 9.8 L 77.0 8.0 L 72.9 7.0 L 69.7 4.8 L 67.0 1.9 L 63.1 0.2 L 58.6 0.0 Z"/>
    <path d="M 34.1 7.2 L 30.3 9.6 L 27.0 13.0 L 23.5 16.0 L 19.2 17.1 L 15.4 19.5 L 12.8 23.2 L 12.0 27.6 L 11.8 32.2 L 8.1 34.8 L 4.4 37.5 L 2.1 41.3 L 1.0 45.6 L -0.0 49.9 L -0.1 54.7 L 1.0 59.0 L 2.8 63.0 L 5.1 66.8 L 7.5 70.6 L 11.3 73.1 L 11.9 77.6 L 13.6 81.6 L 16.3 85.3 L 19.8 88.1 L 24.1 89.3 L 27.7 91.9 L 31.0 94.2 L 35.0 95.9 L 39.8 96.1 L 43.8 94.4 L 46.0 91.0 L 42.0 90.8 L 37.8 92.1 L 33.4 91.0 L 30.7 87.7 L 27.7 84.9 L 23.2 84.3 L 19.3 82.3 L 16.0 78.9 L 15.8 74.9 L 19.0 71.8 L 18.0 69.2 L 13.4 69.0 L 10.0 66.4 L 6.9 63.0 L 4.8 59.1 L 4.0 54.7 L 4.0 50.0 L 5.0 45.7 L 7.2 41.8 L 10.6 38.6 L 14.5 36.5 L 15.8 33.0 L 15.0 28.6 L 17.0 24.7 L 19.9 21.2 L 24.1 20.0 L 28.5 19.1 L 31.2 15.8 L 34.6 12.5 L 38.8 11.0 L 42.7 13.1 L 46.0 10.4 L 43.4 7.4 L 38.8 7.1 Z"/>
    <path d="M 40.2 27.2 L 39.4 28.9 L 39.5 31.5 L 39.8 33.8 L 39.1 35.3 L 37.3 36.5 L 35.0 37.9 L 33.2 39.6 L 32.4 41.9 L 33.0 43.6 L 34.8 43.8 L 36.7 42.4 L 38.6 40.3 L 40.2 38.4 L 41.6 36.7 L 43.0 34.9 L 44.6 32.8 L 45.4 30.6 L 44.3 28.5 L 42.2 27.1 Z"/>
    <path d="M 68.4 32.1 L 67.0 35.2 L 67.3 38.6 L 68.7 41.6 L 70.1 44.7 L 71.1 48.0 L 70.9 51.2 L 69.5 54.4 L 67.1 57.2 L 65.9 59.9 L 68.5 60.6 L 71.2 58.7 L 73.2 55.9 L 74.5 52.7 L 74.9 49.4 L 74.5 46.1 L 73.4 43.0 L 72.1 39.9 L 71.5 36.5 L 70.6 33.3 Z"/>
    <path d="M 19.1 41.0 L 17.9 43.9 L 18.2 47.2 L 19.7 50.0 L 21.8 52.6 L 24.0 55.1 L 25.7 57.6 L 27.3 60.2 L 29.4 63.1 L 31.8 65.5 L 34.0 65.5 L 34.8 62.6 L 32.9 60.2 L 30.3 58.1 L 28.6 55.6 L 27.4 52.7 L 26.5 49.7 L 25.5 46.7 L 24.2 43.8 L 21.9 41.5 Z"/>
    <path d="M 84.5 52.4 L 83.8 52.6 L 83.3 53.1 L 83.0 53.9 L 83.0 54.9 L 83.1 56.0 L 83.4 57.1 L 83.9 58.1 L 84.5 58.9 L 85.3 59.5 L 86.2 59.8 L 87.1 59.6 L 88.0 59.2 L 88.7 58.4 L 89.1 57.5 L 89.0 56.4 L 88.4 55.3 L 87.5 54.2 L 86.5 53.3 L 85.5 52.7 Z"/>
    <path d="M 77.3 66.2 L 76.4 68.0 L 75.7 70.6 L 74.5 72.5 L 72.4 73.1 L 70.0 73.5 L 67.8 74.7 L 66.7 76.6 L 67.3 78.7 L 69.1 80.3 L 71.2 80.9 L 73.1 80.3 L 74.9 78.8 L 76.6 77.0 L 78.3 75.1 L 80.1 73.6 L 81.7 72.5 L 82.1 70.6 L 81.0 68.2 L 79.1 66.4 Z"/>
    <path d="M 38.4 72.7 L 37.7 72.9 L 37.3 73.5 L 37.1 74.2 L 37.2 75.1 L 37.4 76.1 L 37.9 77.0 L 38.5 77.9 L 39.3 78.6 L 40.1 79.0 L 41.1 79.1 L 42.0 78.8 L 42.9 78.3 L 43.5 77.5 L 43.7 76.6 L 43.5 75.7 L 42.8 74.7 L 41.8 73.9 L 40.6 73.2 L 39.4 72.8 Z"/>
  </g>
</svg>