<svg width="128" height="128" viewBox="0 0 128 128" fill="none" xmlns="http://www.w3.org/2000/svg">
  <defs>
    <linearGradient id="gearGrad" x1="27" y1="24" x2="100" y2="101" gradientUnits="userSpaceOnUse">
      <stop offset="0%" stop-color="#8AA2FF"/>
      <stop offset="38%" stop-color="#5E74FF"/>
      <stop offset="72%" stop-color="#314BFF"/>
      <stop offset="100%" stop-color="#1C2DEB"/>
    </linearGradient>

    <linearGradient id="ringGrad" x1="43" y1="38" x2="84" y2="86" gradientUnits="userSpaceOnUse">
      <stop offset="0%" stop-color="#D8D9FF"/>
      <stop offset="32%" stop-color="#8B8EFF"/>
      <stop offset="68%" stop-color="#5A5FFF"/>
      <stop offset="100%" stop-color="#2F35FF"/>
    </linearGradient>

    <radialGradient id="innerGlow" cx="0" cy="0" r="1" gradientUnits="userSpaceOnUse"
      gradientTransform="translate(64 64) rotate(90) scale(40 40)">
      <stop offset="0.72" stop-color="#0A0C22" stop-opacity="0"/>
      <stop offset="1" stop-color="#5970FF" stop-opacity="0.35"/>
    </radialGradient>

    <filter id="softGlow" x="8" y="8" width="112" height="112" filterUnits="userSpaceOnUse" color-interpolation-filters="sRGB">
      <feFlood flood-opacity="0" result="BackgroundImageFix"/>
      <feBlend mode="normal" in="SourceGraphic" in2="BackgroundImageFix" result="shape"/>
      <feGaussianBlur stdDeviation="4.5" result="blur"/>
    </filter>

    <filter id="ringShadow" x="28" y="28" width="72" height="72" filterUnits="userSpaceOnUse" color-interpolation-filters="sRGB">
      <feFlood flood-opacity="0" result="BackgroundImageFix"/>
      <feBlend mode="normal" in="SourceGraphic" in2="BackgroundImageFix" result="shape"/>
      <feGaussianBlur stdDeviation="1.5" result="effect1_foregroundBlur"/>
    </filter>
  </defs>

  <!-- outer glow -->
  <g filter="url(#softGlow)" opacity="0.55">
    <path
      d="M69.5 19.5C67.4 19.1 65.3 18.9 63.2 18.9C61.1 18.9 59 19.1 56.9 19.5L55.7 28.3C52.9 29.1 50.3 30.2 47.8 31.7L40.8 26.2C37.4 28.5 34.5 31.4 32.2 34.8L37.7 41.8C36.2 44.3 35.1 46.9 34.3 49.7L25.5 50.9C25.1 53 24.9 55.1 24.9 57.2C24.9 59.3 25.1 61.4 25.5 63.5L34.3 64.7C35.1 67.5 36.2 70.1 37.7 72.6L32.2 79.6C34.5 83 37.4 85.9 40.8 88.2L47.8 82.7C50.3 84.2 52.9 85.3 55.7 86.1L56.9 94.9C59 95.3 61.1 95.5 63.2 95.5C65.3 95.5 67.4 95.3 69.5 94.9L70.7 86.1C73.5 85.3 76.1 84.2 78.6 82.7L85.6 88.2C89 85.9 91.9 83 94.2 79.6L88.7 72.6C90.2 70.1 91.3 67.5 92.1 64.7L100.9 63.5C101.3 61.4 101.5 59.3 101.5 57.2C101.5 55.1 101.3 53 100.9 50.9L92.1 49.7C91.3 46.9 90.2 44.3 88.7 41.8L94.2 34.8C91.9 31.4 89 28.5 85.6 26.2L78.6 31.7C76.1 30.2 73.5 29.1 70.7 28.3L69.5 19.5Z"
      fill="#3D50FF"/>
  </g>

  <!-- gear -->
  <path
    d="M69.5 19.5C67.4 19.1 65.3 18.9 63.2 18.9C61.1 18.9 59 19.1 56.9 19.5L55.7 28.3C52.9 29.1 50.3 30.2 47.8 31.7L40.8 26.2C37.4 28.5 34.5 31.4 32.2 34.8L37.7 41.8C36.2 44.3 35.1 46.9 34.3 49.7L25.5 50.9C25.1 53 24.9 55.1 24.9 57.2C24.9 59.3 25.1 61.4 25.5 63.5L34.3 64.7C35.1 67.5 36.2 70.1 37.7 72.6L32.2 79.6C34.5 83 37.4 85.9 40.8 88.2L47.8 82.7C50.3 84.2 52.9 85.3 55.7 86.1L56.9 94.9C59 95.3 61.1 95.5 63.2 95.5C65.3 95.5 67.4 95.3 69.5 94.9L70.7 86.1C73.5 85.3 76.1 84.2 78.6 82.7L85.6 88.2C89 85.9 91.9 83 94.2 79.6L88.7 72.6C90.2 70.1 91.3 67.5 92.1 64.7L100.9 63.5C101.3 61.4 101.5 59.3 101.5 57.2C101.5 55.1 101.3 53 100.9 50.9L92.1 49.7C91.3 46.9 90.2 44.3 88.7 41.8L94.2 34.8C91.9 31.4 89 28.5 85.6 26.2L78.6 31.7C76.1 30.2 73.5 29.1 70.7 28.3L69.5 19.5Z"
    fill="url(#gearGrad)"/>

  <!-- top-left glossy highlight -->
  <path
    d="M36.5 39.5C40.2 33.8 45.6 29.4 51.9 26.9C53.6 26.2 55.7 27 56.4 28.8C57.1 30.5 56.3 32.6 54.5 33.3C49.5 35.2 45.2 38.7 42.2 43.2C41.2 44.7 39.1 45.1 37.6 44.1C36.1 43.1 35.6 41 36.5 39.5Z"
    fill="#D7DCFF"
    opacity="0.9"/>

  <!-- ring glow -->
  <circle cx="64" cy="64" r="31" fill="url(#innerGlow)"/>

  <!-- center ring -->
  <g filter="url(#ringShadow)">
    <path
      d="M64 36.5C79.2 36.5 91.5 48.8 91.5 64C91.5 79.2 79.2 91.5 64 91.5C48.8 91.5 36.5 79.2 36.5 64C36.5 48.8 48.8 36.5 64 36.5ZM64 43.5C52.7 43.5 43.5 52.7 43.5 64C43.5 75.3 52.7 84.5 64 84.5C75.3 84.5 84.5 75.3 84.5 64C84.5 52.7 75.3 43.5 64 43.5Z"
      fill="url(#ringGrad)"/>
  </g>

  <!-- tiny specular highlight -->
  <path
    d="M44.8 48.9C47.7 44.8 52.5 42 57.9 41.4"
    stroke="#EEF0FF"
    stroke-width="3.4"
    stroke-linecap="round"
    opacity="0.9"/>

  <!-- dark center -->
  <circle cx="64" cy="64" r="19.5" fill="#0A0D25"/>
</svg>