<svg width="128" height="128" viewBox="0 0 128 128" fill="none" xmlns="http://www.w3.org/2000/svg">
  <defs>
    <linearGradient id="bulbBody" x1="43" y1="27" x2="87" y2="84" gradientUnits="userSpaceOnUse">
      <stop offset="0%" stop-color="#1E7BFF"/>
      <stop offset="34%" stop-color="#4E68FF"/>
      <stop offset="68%" stop-color="#7A5BFF"/>
      <stop offset="100%" stop-color="#C86AF7"/>
    </linearGradient>

    <linearGradient id="baseGrad" x1="52" y1="81" x2="76" y2="96" gradientUnits="userSpaceOnUse">
      <stop offset="0%" stop-color="#516CFF"/>
      <stop offset="55%" stop-color="#7D63FF"/>
      <stop offset="100%" stop-color="#C178FF"/>
    </linearGradient>

    <linearGradient id="rayLeft" x1="25" y1="52" x2="42" y2="52" gradientUnits="userSpaceOnUse">
      <stop offset="0%" stop-color="#0D6CFF"/>
      <stop offset="100%" stop-color="#4A77FF"/>
    </linearGradient>

    <linearGradient id="rayRight" x1="86" y1="52" x2="104" y2="52" gradientUnits="userSpaceOnUse">
      <stop offset="0%" stop-color="#7A5FFF"/>
      <stop offset="100%" stop-color="#DB52E9"/>
    </linearGradient>

    <filter id="glow" x="15" y="18" width="98" height="92" filterUnits="userSpaceOnUse" color-interpolation-filters="sRGB">
      <feFlood flood-opacity="0" result="BackgroundImageFix"/>
      <feColorMatrix in="SourceAlpha" type="matrix" values="0 0 0 0 0 0 0 0 0 0 0 0 0 0 0 0 0 0 127 0" result="hardAlpha"/>
      <feOffset/>
      <feGaussianBlur stdDeviation="4.5"/>
      <feComposite in2="hardAlpha" operator="out"/>
      <feColorMatrix type="matrix" values="0 0 0 0 0.28 0 0 0 0 0.36 0 0 0 0 1 0 0 0 0.65 0"/>
      <feBlend mode="screen" in2="BackgroundImageFix" result="effect1_dropShadow"/>
      <feBlend mode="normal" in="SourceGraphic" in2="effect1_dropShadow" result="shape"/>
    </filter>

    <filter id="softBlur" x="28" y="25" width="72" height="76" filterUnits="userSpaceOnUse" color-interpolation-filters="sRGB">
      <feFlood flood-opacity="0" result="BackgroundImageFix"/>
      <feBlend mode="normal" in="SourceGraphic" in2="BackgroundImageFix" result="shape"/>
      <feGaussianBlur stdDeviation="1.2" result="effect1_foregroundBlur"/>
    </filter>
  </defs>

  <g filter="url(#glow)">
    <!-- side rays -->
    <rect x="28" y="50.5" width="17" height="4.2" rx="2.1" fill="url(#rayLeft)"/>
    <rect x="83" y="50.5" width="18" height="4.2" rx="2.1" fill="url(#rayRight)"/>

    <rect x="35.5" y="35.5" width="12.5" height="4.2" rx="2.1" transform="rotate(-42 35.5 35.5)" fill="url(#rayLeft)"/>
    <rect x="88" y="44.5" width="12.5" height="4.2" rx="2.1" transform="rotate(42 88 44.5)" fill="url(#rayRight)"/>

    <rect x="37" y="68" width="14" height="4.2" rx="2.1" transform="rotate(-44 37 68)" fill="url(#rayLeft)"/>
    <rect x="86" y="58.5" width="14" height="4.2" rx="2.1" transform="rotate(44 86 58.5)" fill="url(#rayRight)"/>

    <rect x="61.8" y="23" width="4.4" height="12.5" rx="2.2" fill="#2F5EFF"/>

    <!-- bulb -->
    <g filter="url(#softBlur)">
      <path d="M64.58 27C49.57 27 38 38.14 38 52.24C38 60.37 41.87 67.32 48.61 72.82C52.75 76.2 54.41 80.03 54.41 85.18V86.4H73.59V85.18C73.59 79.96 75.24 76.16 79.34 72.79C86.07 67.27 91 60.32 91 52.24C91 38.14 79.43 27 64.58 27Z" fill="url(#bulbBody)"/>

      <!-- glossy highlight -->
      <path d="M46.8 43.3C48.9 36.7 53.9 31.9 61.4 30.5" stroke="#C7F7FF" stroke-width="6.2" stroke-linecap="round" opacity="0.9"/>
      <path d="M50.7 46.1C52.2 40.7 56.2 36.9 62.1 35.2" stroke="#7BE8FF" stroke-width="3.6" stroke-linecap="round" opacity="0.9"/>

      <!-- inner filament -->
      <path d="M58.5 58.2C59.7 62.6 61.6 65.8 64.2 68.2C66.9 65.8 68.8 62.6 70 58.2" stroke="#F2F6FF" stroke-width="5.2" stroke-linecap="round" stroke-linejoin="round"/>
      <path d="M58.8 58.6C60.9 61.2 63 62.3 64.2 62.3C65.3 62.3 67.6 61.2 69.7 58.6" stroke="#EEF2FF" stroke-width="2.8" stroke-linecap="round" stroke-linejoin="round"/>
      <path d="M61.5 68.5V83.5" stroke="#232647" stroke-width="3.3" stroke-linecap="round"/>
      <path d="M66.9 68.5V83.5" stroke="#232647" stroke-width="3.3" stroke-linecap="round"/>

      <!-- screw base -->
      <rect x="53.5" y="85" width="21" height="5.2" rx="2.6" fill="url(#baseGrad)"/>
      <rect x="52" y="91" width="24" height="5.4" rx="2.7" fill="url(#baseGrad)"/>
      <rect x="53.5" y="97.2" width="21" height="5" rx="2.5" fill="url(#baseGrad)"/>

      <!-- lower glow rim -->
      <ellipse cx="64" cy="100.2" rx="11.5" ry="2.4" fill="#E8B6FF" opacity="0.45"/>
    </g>
  </g>
</svg>