<svg width="220" height="220" viewBox="0 0 220 220" fill="none" xmlns="http://www.w3.org/2000/svg">
  <defs>
    <!-- Main gradients -->
    <linearGradient id="bodyGrad" x1="52" y1="86" x2="168" y2="160" gradientUnits="userSpaceOnUse">
      <stop offset="0%" stop-color="#1F7BFF"/>
      <stop offset="55%" stop-color="#2E5BFF"/>
      <stop offset="100%" stop-color="#5F4DFF"/>
    </linearGradient>

    <linearGradient id="lidGrad" x1="58" y1="72" x2="164" y2="104" gradientUnits="userSpaceOnUse">
      <stop offset="0%" stop-color="#88C9FF"/>
      <stop offset="55%" stop-color="#9B93FF"/>
      <stop offset="100%" stop-color="#C37BFF"/>
    </linearGradient>

    <linearGradient id="handleGrad" x1="94" y1="49" x2="129" y2="49" gradientUnits="userSpaceOnUse">
      <stop offset="0%" stop-color="#1E8FFF"/>
      <stop offset="100%" stop-color="#C56CFF"/>
    </linearGradient>

    <linearGradient id="leftGlow" x1="50" y1="95" x2="70" y2="95" gradientUnits="userSpaceOnUse">
      <stop offset="0%" stop-color="#62E7FF"/>
      <stop offset="100%" stop-color="#1C6DFF" stop-opacity="0"/>
    </linearGradient>

    <filter id="softGlow" x="-40%" y="-40%" width="180%" height="180%">
      <feGaussianBlur stdDeviation="5" result="blur"/>
      <feColorMatrix
        in="blur"
        type="matrix"
        values="1 0 0 0 0
                0 1 0 0 0
                0 0 1 0 0
                0 0 0 0.45 0"/>
      <feBlend in="SourceGraphic" mode="normal"/>
    </filter>

    <filter id="miniGlow" x="-50%" y="-50%" width="200%" height="200%">
      <feGaussianBlur stdDeviation="2.5" result="blur"/>
      <feColorMatrix
        in="blur"
        type="matrix"
        values="1 0 0 0 0
                0 1 0 0 0
                0 0 1 0 0
                0 0 0 0.55 0"/>
      <feBlend in="SourceGraphic" mode="normal"/>
    </filter>
  </defs>

  <!-- Whole icon -->
  <g filter="url(#softGlow)">
    <!-- Handle -->
    <path
      d="M94 65V54C94 49.582 97.582 46 102 46H121C125.418 46 129 49.582 129 54V65"
      stroke="url(#handleGrad)"
      stroke-width="5"
      stroke-linecap="round"
      stroke-linejoin="round"
    />

    <!-- Lid -->
    <rect
      x="58"
      y="67"
      width="104"
      height="28"
      rx="8"
      fill="url(#lidGrad)"
    />

    <!-- Body -->
    <rect
      x="52"
      y="88"
      width="116"
      height="70"
      rx="10"
      fill="url(#bodyGrad)"
    />

    <!-- Left cyan edge highlight -->
    <rect
      x="52"
      y="88"
      width="10"
      height="70"
      rx="8"
      fill="url(#leftGlow)"
      opacity="0.95"
    />

    <!-- Top-left glow accent -->
    <g filter="url(#miniGlow)">
      <path
        d="M57 74C57 70 60 67 64 67H76"
        stroke="#69E6FF"
        stroke-width="4"
        stroke-linecap="round"
      />
      <path
        d="M55 90V109"
        stroke="#5DE2FF"
        stroke-width="3.5"
        stroke-linecap="round"
        opacity="0.9"
      />
    </g>

    <!-- Closing seam -->
    <path
      d="M53 101C71 107 90 112 110 114C130 112 149 107 167 101"
      stroke="#0A0D1B"
      stroke-width="5"
      stroke-linecap="round"
      stroke-linejoin="round"
    />

    <!-- Buckle outer -->
    <rect
      x="99"
      y="102"
      width="22"
      height="22"
      rx="2"
      fill="#0B1022"
    />

    <!-- Buckle inner fill -->
    <rect
      x="102.5"
      y="105.5"
      width="15"
      height="15"
      rx="1.5"
      fill="#4B79FF"
    />

    <!-- Buckle border -->
    <rect
      x="99"
      y="102"
      width="22"
      height="22"
      rx="2"
      stroke="#05070F"
      stroke-width="4"
    />
  </g>
</svg>