<svg xmlns="http://www.w3.org/2000/svg" width="220" height="240" viewBox="0 0 110 120" fill="none">
  <defs>
    <linearGradient id="topGrad" x1="22" y1="20" x2="90" y2="88" gradientUnits="userSpaceOnUse">
      <stop offset="0%" stop-color="#67D7FF"/>
      <stop offset="14%" stop-color="#58C5FF"/>
      <stop offset="34%" stop-color="#3B57FF"/>
      <stop offset="100%" stop-color="#5C63FF"/>
    </linearGradient>
    <linearGradient id="bottomGrad" x1="45" y1="68" x2="110" y2="45" gradientUnits="userSpaceOnUse">
      <stop offset="0%" stop-color="#5266FF"/>
      <stop offset="48%" stop-color="#6254FF"/>
      <stop offset="100%" stop-color="#DB93FF"/>
    </linearGradient>
    <linearGradient id="leftAccent" x1="21" y1="24" x2="39" y2="24" gradientUnits="userSpaceOnUse">
      <stop offset="0%" stop-color="#84ECFF" stop-opacity="1"/>
      <stop offset="100%" stop-color="#84ECFF" stop-opacity="0"/>
    </linearGradient>
    <linearGradient id="rightAccent" x1="90" y1="44" x2="110" y2="44" gradientUnits="userSpaceOnUse">
      <stop offset="0%" stop-color="#F3B0FF" stop-opacity="0"/>
      <stop offset="100%" stop-color="#F3B0FF" stop-opacity="0.92"/>
    </linearGradient>
    <filter id="glow" x="-35%" y="-35%" width="170%" height="170%" color-interpolation-filters="sRGB">
      <feGaussianBlur stdDeviation="1.7"/>
    </filter>
    <filter id="shadow" x="-35%" y="-35%" width="170%" height="170%" color-interpolation-filters="sRGB">
      <feDropShadow dx="0" dy="0.7" stdDeviation="1.2" flood-color="#050516" flood-opacity="0.95"/>
    </filter>
    <clipPath id="topClip"><path d="M 38.94 93.25 L 37.32 93.53 L 35.62 93.60 L 33.90 93.53 L 32.22 93.40 L 30.66 93.14 L 29.26 92.52 L 28.01 91.44 L 26.64 90.55 L 25.24 89.79 L 24.14 88.63 L 23.29 87.21 L 22.59 85.78 L 22.01 84.35 L 21.52 82.88 L 21.12 81.35 L 20.81 79.77 L 20.60 78.15 L 20.48 76.51 L 20.43 74.83 L 20.43 73.14 L 20.46 71.44 L 20.50 69.73 L 20.53 68.02 L 20.54 66.32 L 20.53 64.63 L 20.51 62.94 L 20.49 61.25 L 20.47 59.56 L 20.46 57.87 L 20.48 56.17 L 20.57 54.49 L 20.79 52.88 L 21.23 51.37 L 21.91 49.99 L 22.83 48.68 L 23.95 47.40 L 25.20 46.20 L 26.51 45.16 L 27.85 44.31 L 29.25 43.65 L 30.71 43.16 L 32.25 42.81 L 33.86 42.57 L 35.54 42.41 L 37.24 42.35 L 38.95 42.45 L 40.59 42.76 L 42.02 43.40 L 43.05 44.52 L 43.57 46.15 L 43.65 47.96 L 43.43 49.61 L 43.06 51.05 L 42.80 52.66 L 43.24 53.94 L 44.67 54.44 L 46.55 54.51 L 48.32 54.54 L 49.90 54.55 L 51.45 54.37 L 53.13 53.82 L 54.22 53.02 L 53.30 52.47 L 51.53 52.41 L 49.64 52.59 L 47.90 52.60 L 46.56 52.02 L 45.74 50.76 L 45.39 49.12 L 45.37 47.41 L 45.52 45.70 L 45.60 44.01 L 45.40 42.35 L 44.81 40.84 L 43.81 39.79 L 42.44 39.37 L 40.79 39.41 L 38.96 39.58 L 37.08 39.60 L 35.70 39.08 L 35.62 37.73 L 36.27 36.19 L 37.13 34.83 L 38.12 33.58 L 39.19 32.35 L 40.34 31.13 L 41.56 29.92 L 42.80 28.72 L 43.99 27.50 L 45.05 26.28 L 45.90 25.04 L 46.97 24.09 L 48.56 23.55 L 49.88 22.78 L 51.28 22.05 L 52.80 21.56 L 54.42 21.43 L 56.02 21.24 L 57.54 20.70 L 59.11 20.40 L 60.77 20.44 L 62.45 20.49 L 64.08 20.24 L 65.66 19.75 L 67.23 19.34 L 68.82 19.29 L 70.45 19.61 L 72.09 20.02 L 73.72 20.27 L 75.32 20.38 L 76.90 20.50 L 78.49 20.78 L 80.08 21.16 L 81.67 21.43 L 83.13 21.93 L 84.47 22.74 L 85.79 23.68 L 87.12 24.64 L 88.36 25.72 L 89.32 27.10 L 89.58 28.69 L 89.72 30.27 L 90.72 31.66 L 89.55 33.03 L 89.48 34.66 L 89.51 36.34 L 89.51 38.03 L 89.51 39.73 L 89.50 41.44 L 89.49 43.14 L 89.50 44.84 L 89.53 46.53 L 89.52 48.20 L 89.41 49.84 L 89.13 51.45 L 88.64 52.99 L 87.91 54.40 L 86.92 55.63 L 85.72 56.70 L 84.39 57.66 L 83.01 58.55 L 81.63 59.41 L 80.31 60.26 L 78.98 61.06 L 77.59 61.74 L 76.10 62.26 L 74.50 62.54 L 72.79 62.55 L 71.05 62.41 L 69.34 62.35 L 67.75 62.59 L 66.30 63.20 L 64.87 63.85 L 63.33 64.24 L 61.79 64.59 L 60.35 65.18 L 58.89 65.76 L 57.39 66.28 L 55.95 66.91 L 54.63 67.73 L 53.33 68.65 L 51.99 69.53 L 50.58 70.36 L 49.24 71.28 L 48.03 72.37 L 46.94 73.60 L 45.93 74.90 L 44.98 76.24 L 44.05 77.56 L 43.20 78.88 L 42.62 80.31 L 42.47 81.94 L 42.60 83.72 L 42.60 85.42 L 42.12 86.89 L 41.63 88.38 L 41.64 90.14 L 41.36 91.67 L 40.37 92.67 Z"/></clipPath>
    <clipPath id="bottomClip"><path d="M 108.91 87.33 L 107.49 88.02 L 106.07 88.85 L 104.54 89.36 L 102.84 89.38 L 101.12 89.40 L 99.50 89.79 L 97.92 90.30 L 96.28 90.49 L 94.72 90.07 L 93.65 89.01 L 93.37 87.36 L 93.53 85.44 L 93.63 83.60 L 93.24 82.17 L 92.10 81.35 L 90.50 80.94 L 88.84 80.65 L 87.15 80.47 L 85.43 80.39 L 83.69 80.41 L 81.94 80.52 L 80.22 80.71 L 78.60 80.96 L 77.10 81.24 L 75.54 81.48 L 73.70 81.58 L 71.65 81.56 L 70.19 81.67 L 70.20 82.20 L 71.58 82.85 L 73.35 83.21 L 75.07 83.43 L 76.73 83.56 L 78.38 83.61 L 80.05 83.60 L 81.79 83.53 L 83.64 83.41 L 85.54 83.33 L 87.35 83.40 L 88.88 83.79 L 89.97 84.64 L 90.48 86.07 L 90.55 87.92 L 90.48 89.84 L 90.60 91.49 L 91.39 92.46 L 93.02 92.63 L 95.01 92.45 L 96.96 92.37 L 98.43 92.88 L 99.17 94.13 L 99.19 95.68 L 98.54 97.11 L 97.41 98.38 L 96.03 99.55 L 94.61 100.73 L 93.35 101.98 L 92.22 103.28 L 91.10 104.55 L 89.88 105.72 L 88.51 106.76 L 87.12 107.75 L 85.80 108.74 L 84.46 109.59 L 82.96 110.16 L 81.36 110.54 L 79.78 110.95 L 78.23 111.40 L 76.54 111.49 L 74.80 111.49 L 73.16 111.76 L 71.62 112.32 L 70.00 112.54 L 68.29 112.51 L 66.54 112.44 L 64.77 112.46 L 63.00 112.53 L 61.25 112.59 L 59.53 112.58 L 57.84 112.45 L 56.21 112.15 L 54.62 111.75 L 53.08 111.30 L 51.59 110.78 L 50.13 110.11 L 48.71 109.21 L 47.40 108.11 L 46.26 106.82 L 45.37 105.40 L 44.80 103.86 L 44.51 102.24 L 44.41 100.55 L 44.43 98.82 L 44.50 97.07 L 44.52 95.31 L 44.64 93.63 L 45.16 92.10 L 45.50 90.51 L 45.51 88.79 L 45.45 87.03 L 45.46 85.29 L 45.59 83.59 L 45.88 81.95 L 46.36 80.40 L 47.08 78.96 L 48.03 77.64 L 49.17 76.42 L 50.42 75.28 L 51.74 74.22 L 53.07 73.22 L 54.41 72.28 L 55.79 71.40 L 57.20 70.60 L 58.65 69.94 L 60.15 69.39 L 61.72 68.87 L 63.35 68.48 L 64.91 68.72 L 66.27 69.72 L 67.50 69.98 L 68.69 68.96 L 69.93 67.50 L 71.27 66.47 L 72.73 65.90 L 74.31 65.57 L 75.97 65.32 L 77.61 65.03 L 79.18 64.64 L 80.70 64.18 L 82.23 63.66 L 83.74 63.02 L 85.16 62.18 L 86.43 61.11 L 87.55 59.86 L 88.51 58.49 L 89.32 57.07 L 89.99 55.63 L 90.53 54.13 L 90.96 52.54 L 91.31 50.91 L 91.58 49.31 L 91.81 47.73 L 92.04 46.09 L 92.34 44.34 L 92.91 42.76 L 93.94 41.77 L 95.48 41.48 L 97.30 41.52 L 99.15 41.51 L 100.92 41.41 L 102.62 41.39 L 104.24 41.63 L 105.77 42.14 L 107.22 42.90 L 108.58 43.86 L 109.84 45.02 L 111.01 46.34 L 112.07 47.83 L 113.04 49.45 L 113.92 51.20 L 114.69 53.06 L 115.36 55.01 L 115.92 57.03 L 116.39 59.12 L 116.75 61.25 L 117.00 63.40 L 117.15 65.57 L 117.19 67.73 L 117.12 69.87 L 116.94 71.97 L 116.66 74.02 L 116.26 76.00 L 115.74 77.89 L 115.12 79.67 L 114.38 81.34 L 113.52 82.88 L 112.55 84.26 L 111.45 85.47 L 110.24 86.50 Z"/></clipPath>
  </defs>

  <g filter="url(#glow)" opacity="0.7">
    <path d="M 38.94 93.25 L 37.32 93.53 L 35.62 93.60 L 33.90 93.53 L 32.22 93.40 L 30.66 93.14 L 29.26 92.52 L 28.01 91.44 L 26.64 90.55 L 25.24 89.79 L 24.14 88.63 L 23.29 87.21 L 22.59 85.78 L 22.01 84.35 L 21.52 82.88 L 21.12 81.35 L 20.81 79.77 L 20.60 78.15 L 20.48 76.51 L 20.43 74.83 L 20.43 73.14 L 20.46 71.44 L 20.50 69.73 L 20.53 68.02 L 20.54 66.32 L 20.53 64.63 L 20.51 62.94 L 20.49 61.25 L 20.47 59.56 L 20.46 57.87 L 20.48 56.17 L 20.57 54.49 L 20.79 52.88 L 21.23 51.37 L 21.91 49.99 L 22.83 48.68 L 23.95 47.40 L 25.20 46.20 L 26.51 45.16 L 27.85 44.31 L 29.25 43.65 L 30.71 43.16 L 32.25 42.81 L 33.86 42.57 L 35.54 42.41 L 37.24 42.35 L 38.95 42.45 L 40.59 42.76 L 42.02 43.40 L 43.05 44.52 L 43.57 46.15 L 43.65 47.96 L 43.43 49.61 L 43.06 51.05 L 42.80 52.66 L 43.24 53.94 L 44.67 54.44 L 46.55 54.51 L 48.32 54.54 L 49.90 54.55 L 51.45 54.37 L 53.13 53.82 L 54.22 53.02 L 53.30 52.47 L 51.53 52.41 L 49.64 52.59 L 47.90 52.60 L 46.56 52.02 L 45.74 50.76 L 45.39 49.12 L 45.37 47.41 L 45.52 45.70 L 45.60 44.01 L 45.40 42.35 L 44.81 40.84 L 43.81 39.79 L 42.44 39.37 L 40.79 39.41 L 38.96 39.58 L 37.08 39.60 L 35.70 39.08 L 35.62 37.73 L 36.27 36.19 L 37.13 34.83 L 38.12 33.58 L 39.19 32.35 L 40.34 31.13 L 41.56 29.92 L 42.80 28.72 L 43.99 27.50 L 45.05 26.28 L 45.90 25.04 L 46.97 24.09 L 48.56 23.55 L 49.88 22.78 L 51.28 22.05 L 52.80 21.56 L 54.42 21.43 L 56.02 21.24 L 57.54 20.70 L 59.11 20.40 L 60.77 20.44 L 62.45 20.49 L 64.08 20.24 L 65.66 19.75 L 67.23 19.34 L 68.82 19.29 L 70.45 19.61 L 72.09 20.02 L 73.72 20.27 L 75.32 20.38 L 76.90 20.50 L 78.49 20.78 L 80.08 21.16 L 81.67 21.43 L 83.13 21.93 L 84.47 22.74 L 85.79 23.68 L 87.12 24.64 L 88.36 25.72 L 89.32 27.10 L 89.58 28.69 L 89.72 30.27 L 90.72 31.66 L 89.55 33.03 L 89.48 34.66 L 89.51 36.34 L 89.51 38.03 L 89.51 39.73 L 89.50 41.44 L 89.49 43.14 L 89.50 44.84 L 89.53 46.53 L 89.52 48.20 L 89.41 49.84 L 89.13 51.45 L 88.64 52.99 L 87.91 54.40 L 86.92 55.63 L 85.72 56.70 L 84.39 57.66 L 83.01 58.55 L 81.63 59.41 L 80.31 60.26 L 78.98 61.06 L 77.59 61.74 L 76.10 62.26 L 74.50 62.54 L 72.79 62.55 L 71.05 62.41 L 69.34 62.35 L 67.75 62.59 L 66.30 63.20 L 64.87 63.85 L 63.33 64.24 L 61.79 64.59 L 60.35 65.18 L 58.89 65.76 L 57.39 66.28 L 55.95 66.91 L 54.63 67.73 L 53.33 68.65 L 51.99 69.53 L 50.58 70.36 L 49.24 71.28 L 48.03 72.37 L 46.94 73.60 L 45.93 74.90 L 44.98 76.24 L 44.05 77.56 L 43.20 78.88 L 42.62 80.31 L 42.47 81.94 L 42.60 83.72 L 42.60 85.42 L 42.12 86.89 L 41.63 88.38 L 41.64 90.14 L 41.36 91.67 L 40.37 92.67 Z" fill="#3557FF"/>
    <path d="M 108.91 87.33 L 107.49 88.02 L 106.07 88.85 L 104.54 89.36 L 102.84 89.38 L 101.12 89.40 L 99.50 89.79 L 97.92 90.30 L 96.28 90.49 L 94.72 90.07 L 93.65 89.01 L 93.37 87.36 L 93.53 85.44 L 93.63 83.60 L 93.24 82.17 L 92.10 81.35 L 90.50 80.94 L 88.84 80.65 L 87.15 80.47 L 85.43 80.39 L 83.69 80.41 L 81.94 80.52 L 80.22 80.71 L 78.60 80.96 L 77.10 81.24 L 75.54 81.48 L 73.70 81.58 L 71.65 81.56 L 70.19 81.67 L 70.20 82.20 L 71.58 82.85 L 73.35 83.21 L 75.07 83.43 L 76.73 83.56 L 78.38 83.61 L 80.05 83.60 L 81.79 83.53 L 83.64 83.41 L 85.54 83.33 L 87.35 83.40 L 88.88 83.79 L 89.97 84.64 L 90.48 86.07 L 90.55 87.92 L 90.48 89.84 L 90.60 91.49 L 91.39 92.46 L 93.02 92.63 L 95.01 92.45 L 96.96 92.37 L 98.43 92.88 L 99.17 94.13 L 99.19 95.68 L 98.54 97.11 L 97.41 98.38 L 96.03 99.55 L 94.61 100.73 L 93.35 101.98 L 92.22 103.28 L 91.10 104.55 L 89.88 105.72 L 88.51 106.76 L 87.12 107.75 L 85.80 108.74 L 84.46 109.59 L 82.96 110.16 L 81.36 110.54 L 79.78 110.95 L 78.23 111.40 L 76.54 111.49 L 74.80 111.49 L 73.16 111.76 L 71.62 112.32 L 70.00 112.54 L 68.29 112.51 L 66.54 112.44 L 64.77 112.46 L 63.00 112.53 L 61.25 112.59 L 59.53 112.58 L 57.84 112.45 L 56.21 112.15 L 54.62 111.75 L 53.08 111.30 L 51.59 110.78 L 50.13 110.11 L 48.71 109.21 L 47.40 108.11 L 46.26 106.82 L 45.37 105.40 L 44.80 103.86 L 44.51 102.24 L 44.41 100.55 L 44.43 98.82 L 44.50 97.07 L 44.52 95.31 L 44.64 93.63 L 45.16 92.10 L 45.50 90.51 L 45.51 88.79 L 45.45 87.03 L 45.46 85.29 L 45.59 83.59 L 45.88 81.95 L 46.36 80.40 L 47.08 78.96 L 48.03 77.64 L 49.17 76.42 L 50.42 75.28 L 51.74 74.22 L 53.07 73.22 L 54.41 72.28 L 55.79 71.40 L 57.20 70.60 L 58.65 69.94 L 60.15 69.39 L 61.72 68.87 L 63.35 68.48 L 64.91 68.72 L 66.27 69.72 L 67.50 69.98 L 68.69 68.96 L 69.93 67.50 L 71.27 66.47 L 72.73 65.90 L 74.31 65.57 L 75.97 65.32 L 77.61 65.03 L 79.18 64.64 L 80.70 64.18 L 82.23 63.66 L 83.74 63.02 L 85.16 62.18 L 86.43 61.11 L 87.55 59.86 L 88.51 58.49 L 89.32 57.07 L 89.99 55.63 L 90.53 54.13 L 90.96 52.54 L 91.31 50.91 L 91.58 49.31 L 91.81 47.73 L 92.04 46.09 L 92.34 44.34 L 92.91 42.76 L 93.94 41.77 L 95.48 41.48 L 97.30 41.52 L 99.15 41.51 L 100.92 41.41 L 102.62 41.39 L 104.24 41.63 L 105.77 42.14 L 107.22 42.90 L 108.58 43.86 L 109.84 45.02 L 111.01 46.34 L 112.07 47.83 L 113.04 49.45 L 113.92 51.20 L 114.69 53.06 L 115.36 55.01 L 115.92 57.03 L 116.39 59.12 L 116.75 61.25 L 117.00 63.40 L 117.15 65.57 L 117.19 67.73 L 117.12 69.87 L 116.94 71.97 L 116.66 74.02 L 116.26 76.00 L 115.74 77.89 L 115.12 79.67 L 114.38 81.34 L 113.52 82.88 L 112.55 84.26 L 111.45 85.47 L 110.24 86.50 Z" fill="#A07BFF"/>
  </g>

  <g filter="url(#shadow)">
    <path d="M 38.94 93.25 L 37.32 93.53 L 35.62 93.60 L 33.90 93.53 L 32.22 93.40 L 30.66 93.14 L 29.26 92.52 L 28.01 91.44 L 26.64 90.55 L 25.24 89.79 L 24.14 88.63 L 23.29 87.21 L 22.59 85.78 L 22.01 84.35 L 21.52 82.88 L 21.12 81.35 L 20.81 79.77 L 20.60 78.15 L 20.48 76.51 L 20.43 74.83 L 20.43 73.14 L 20.46 71.44 L 20.50 69.73 L 20.53 68.02 L 20.54 66.32 L 20.53 64.63 L 20.51 62.94 L 20.49 61.25 L 20.47 59.56 L 20.46 57.87 L 20.48 56.17 L 20.57 54.49 L 20.79 52.88 L 21.23 51.37 L 21.91 49.99 L 22.83 48.68 L 23.95 47.40 L 25.20 46.20 L 26.51 45.16 L 27.85 44.31 L 29.25 43.65 L 30.71 43.16 L 32.25 42.81 L 33.86 42.57 L 35.54 42.41 L 37.24 42.35 L 38.95 42.45 L 40.59 42.76 L 42.02 43.40 L 43.05 44.52 L 43.57 46.15 L 43.65 47.96 L 43.43 49.61 L 43.06 51.05 L 42.80 52.66 L 43.24 53.94 L 44.67 54.44 L 46.55 54.51 L 48.32 54.54 L 49.90 54.55 L 51.45 54.37 L 53.13 53.82 L 54.22 53.02 L 53.30 52.47 L 51.53 52.41 L 49.64 52.59 L 47.90 52.60 L 46.56 52.02 L 45.74 50.76 L 45.39 49.12 L 45.37 47.41 L 45.52 45.70 L 45.60 44.01 L 45.40 42.35 L 44.81 40.84 L 43.81 39.79 L 42.44 39.37 L 40.79 39.41 L 38.96 39.58 L 37.08 39.60 L 35.70 39.08 L 35.62 37.73 L 36.27 36.19 L 37.13 34.83 L 38.12 33.58 L 39.19 32.35 L 40.34 31.13 L 41.56 29.92 L 42.80 28.72 L 43.99 27.50 L 45.05 26.28 L 45.90 25.04 L 46.97 24.09 L 48.56 23.55 L 49.88 22.78 L 51.28 22.05 L 52.80 21.56 L 54.42 21.43 L 56.02 21.24 L 57.54 20.70 L 59.11 20.40 L 60.77 20.44 L 62.45 20.49 L 64.08 20.24 L 65.66 19.75 L 67.23 19.34 L 68.82 19.29 L 70.45 19.61 L 72.09 20.02 L 73.72 20.27 L 75.32 20.38 L 76.90 20.50 L 78.49 20.78 L 80.08 21.16 L 81.67 21.43 L 83.13 21.93 L 84.47 22.74 L 85.79 23.68 L 87.12 24.64 L 88.36 25.72 L 89.32 27.10 L 89.58 28.69 L 89.72 30.27 L 90.72 31.66 L 89.55 33.03 L 89.48 34.66 L 89.51 36.34 L 89.51 38.03 L 89.51 39.73 L 89.50 41.44 L 89.49 43.14 L 89.50 44.84 L 89.53 46.53 L 89.52 48.20 L 89.41 49.84 L 89.13 51.45 L 88.64 52.99 L 87.91 54.40 L 86.92 55.63 L 85.72 56.70 L 84.39 57.66 L 83.01 58.55 L 81.63 59.41 L 80.31 60.26 L 78.98 61.06 L 77.59 61.74 L 76.10 62.26 L 74.50 62.54 L 72.79 62.55 L 71.05 62.41 L 69.34 62.35 L 67.75 62.59 L 66.30 63.20 L 64.87 63.85 L 63.33 64.24 L 61.79 64.59 L 60.35 65.18 L 58.89 65.76 L 57.39 66.28 L 55.95 66.91 L 54.63 67.73 L 53.33 68.65 L 51.99 69.53 L 50.58 70.36 L 49.24 71.28 L 48.03 72.37 L 46.94 73.60 L 45.93 74.90 L 44.98 76.24 L 44.05 77.56 L 43.20 78.88 L 42.62 80.31 L 42.47 81.94 L 42.60 83.72 L 42.60 85.42 L 42.12 86.89 L 41.63 88.38 L 41.64 90.14 L 41.36 91.67 L 40.37 92.67 Z" fill="url(#topGrad)" stroke="#0A0A1D" stroke-width="2.2" stroke-linejoin="round"/>
    <path d="M 108.91 87.33 L 107.49 88.02 L 106.07 88.85 L 104.54 89.36 L 102.84 89.38 L 101.12 89.40 L 99.50 89.79 L 97.92 90.30 L 96.28 90.49 L 94.72 90.07 L 93.65 89.01 L 93.37 87.36 L 93.53 85.44 L 93.63 83.60 L 93.24 82.17 L 92.10 81.35 L 90.50 80.94 L 88.84 80.65 L 87.15 80.47 L 85.43 80.39 L 83.69 80.41 L 81.94 80.52 L 80.22 80.71 L 78.60 80.96 L 77.10 81.24 L 75.54 81.48 L 73.70 81.58 L 71.65 81.56 L 70.19 81.67 L 70.20 82.20 L 71.58 82.85 L 73.35 83.21 L 75.07 83.43 L 76.73 83.56 L 78.38 83.61 L 80.05 83.60 L 81.79 83.53 L 83.64 83.41 L 85.54 83.33 L 87.35 83.40 L 88.88 83.79 L 89.97 84.64 L 90.48 86.07 L 90.55 87.92 L 90.48 89.84 L 90.60 91.49 L 91.39 92.46 L 93.02 92.63 L 95.01 92.45 L 96.96 92.37 L 98.43 92.88 L 99.17 94.13 L 99.19 95.68 L 98.54 97.11 L 97.41 98.38 L 96.03 99.55 L 94.61 100.73 L 93.35 101.98 L 92.22 103.28 L 91.10 104.55 L 89.88 105.72 L 88.51 106.76 L 87.12 107.75 L 85.80 108.74 L 84.46 109.59 L 82.96 110.16 L 81.36 110.54 L 79.78 110.95 L 78.23 111.40 L 76.54 111.49 L 74.80 111.49 L 73.16 111.76 L 71.62 112.32 L 70.00 112.54 L 68.29 112.51 L 66.54 112.44 L 64.77 112.46 L 63.00 112.53 L 61.25 112.59 L 59.53 112.58 L 57.84 112.45 L 56.21 112.15 L 54.62 111.75 L 53.08 111.30 L 51.59 110.78 L 50.13 110.11 L 48.71 109.21 L 47.40 108.11 L 46.26 106.82 L 45.37 105.40 L 44.80 103.86 L 44.51 102.24 L 44.41 100.55 L 44.43 98.82 L 44.50 97.07 L 44.52 95.31 L 44.64 93.63 L 45.16 92.10 L 45.50 90.51 L 45.51 88.79 L 45.45 87.03 L 45.46 85.29 L 45.59 83.59 L 45.88 81.95 L 46.36 80.40 L 47.08 78.96 L 48.03 77.64 L 49.17 76.42 L 50.42 75.28 L 51.74 74.22 L 53.07 73.22 L 54.41 72.28 L 55.79 71.40 L 57.20 70.60 L 58.65 69.94 L 60.15 69.39 L 61.72 68.87 L 63.35 68.48 L 64.91 68.72 L 66.27 69.72 L 67.50 69.98 L 68.69 68.96 L 69.93 67.50 L 71.27 66.47 L 72.73 65.90 L 74.31 65.57 L 75.97 65.32 L 77.61 65.03 L 79.18 64.64 L 80.70 64.18 L 82.23 63.66 L 83.74 63.02 L 85.16 62.18 L 86.43 61.11 L 87.55 59.86 L 88.51 58.49 L 89.32 57.07 L 89.99 55.63 L 90.53 54.13 L 90.96 52.54 L 91.31 50.91 L 91.58 49.31 L 91.81 47.73 L 92.04 46.09 L 92.34 44.34 L 92.91 42.76 L 93.94 41.77 L 95.48 41.48 L 97.30 41.52 L 99.15 41.51 L 100.92 41.41 L 102.62 41.39 L 104.24 41.63 L 105.77 42.14 L 107.22 42.90 L 108.58 43.86 L 109.84 45.02 L 111.01 46.34 L 112.07 47.83 L 113.04 49.45 L 113.92 51.20 L 114.69 53.06 L 115.36 55.01 L 115.92 57.03 L 116.39 59.12 L 116.75 61.25 L 117.00 63.40 L 117.15 65.57 L 117.19 67.73 L 117.12 69.87 L 116.94 71.97 L 116.66 74.02 L 116.26 76.00 L 115.74 77.89 L 115.12 79.67 L 114.38 81.34 L 113.52 82.88 L 112.55 84.26 L 111.45 85.47 L 110.24 86.50 Z" fill="url(#bottomGrad)" stroke="#0A0A1D" stroke-width="2.2" stroke-linejoin="round"/>
  </g>

  <g clip-path="url(#topClip)">
    <rect x="21" y="21" width="18" height="74" rx="8" fill="url(#leftAccent)"/>
    <rect x="33.5" y="21" width="11" height="20" rx="4" fill="#64DFFF" opacity="0.6"/>
  </g>
  <g clip-path="url(#bottomClip)">
    <rect x="91" y="41" width="19" height="52" rx="10" fill="url(#rightAccent)"/>
  </g>
</svg>